<svg width="462" height="385" viewBox="0 0 462 385" fill="none" xmlns="http://www.w3.org/2000/svg">
    <path fill-rule="evenodd" clip-rule="evenodd"
          d="M53.1035 169.931C53.1035 141.358 69.5822 112.795 101.679 90.2854C133.694 67.8328 179.333 53.1035 231 53.1035C282.667 53.1035 328.306 67.8327 360.321 90.2853C392.418 112.794 408.897 141.358 408.897 169.931C408.897 186.382 403.545 202.463 393.091 217.508C384.723 229.551 387.702 246.096 399.744 254.464C411.786 262.832 428.332 259.853 436.7 247.811C452.577 224.961 462 198.471 462 169.931C462 119.318 432.711 76.1918 390.812 46.8078C348.832 17.3673 292.247 3.54861e-05 231 4.08405e-05C169.753 4.61949e-05 113.168 17.3674 71.1879 46.8079C29.2885 76.1918 1.04311e-05 119.318 1.48558e-05 169.931C1.92806e-05 220.544 29.2885 263.67 71.1879 293.054C113.168 322.495 169.753 339.862 231 339.862C231.405 339.862 231.734 340.19 231.734 340.596L231.734 383.825C231.734 384.595 232.568 385.076 233.234 384.691L357.683 312.841C358.349 312.456 358.349 311.493 357.683 311.109L233.234 239.258C232.568 238.873 231.734 239.355 231.734 240.124L231.734 286.023C231.734 286.429 231.406 286.759 231 286.759C179.333 286.759 133.694 272.029 101.679 249.577C69.5822 227.068 53.1035 198.504 53.1035 169.931Z"
          fill="white"/>
</svg>
