<?xml version="1.0" encoding="UTF-8"?>
<svg width="728px" height="86px" viewBox="0 0 728 86" version="1.1" xmlns="http://www.w3.org/2000/svg">
    <!-- Generator: Sketch 61.2 (89653) - https://sketch.com -->
    <title>Logo-Aligned</title>
    <desc>Created with Sketch.</desc>
    <g id="Brand" stroke="none" stroke-width="1" fill="none" fill-rule="evenodd">
        <g id="Logo-Aligned" transform="translate(-78.000000, -216.000000)">
            <g transform="translate(78.000000, 216.000000)">
                <path d="M160.977333,81.296 L166.353333,53.744 L181.921333,53.744 C199.169333,53.744 208.801333,44.112 211.713333,29.44 C214.513333,14.768 202.641333,2.896 185.057333,2.896 L156.161333,2.896 L140.929333,81.296 L160.977333,81.296 Z M181.473333,37.392 L169.489333,37.392 L173.073333,19.248 L182.817333,19.248 C189.537333,19.248 193.569333,24.624 192.673333,29.44 C191.777333,34.256 187.857333,37.392 181.473333,37.392 Z M264.129333,81.296 L267.489333,64.272 L233.441333,64.272 L245.313333,2.896 L225.265333,2.896 L210.033333,81.296 L264.129333,81.296 Z M291.395111,81.296 L299.683111,65.952 L325.219111,65.952 L327.571111,81.296 L348.179111,81.296 L334.179111,2.896 L315.139111,2.896 L270.675111,81.296 L291.395111,81.296 Z M322.755111,49.376 L308.643111,49.376 L319.619111,28.992 L322.755111,49.376 Z M380.603111,81.296 L386.875111,49.04 L422.043111,2.896 L400.763111,2.896 L380.043111,30.448 L370.299111,2.896 L349.579111,2.896 L366.827111,49.04 L360.555111,81.296 L380.603111,81.296 Z M449.296444,81.296 C465.984444,81.296 477.632444,72.896 480.096444,59.904 C482.448444,47.696 477.632444,41.424 471.360444,38.512 C476.288444,36.048 481.664444,30.448 483.120444,23.056 C485.360444,11.744 475.952444,2.896 461.728444,2.896 L429.248444,2.896 L414.016444,81.296 L449.296444,81.296 Z M454.448444,31.792 L443.248444,31.792 L445.824444,18.352 L456.576444,18.352 C463.296444,18.352 465.424444,21.04 464.640444,25.072 C463.856444,29.104 460.720444,31.792 454.448444,31.792 Z M448.960444,64.272 L436.976444,64.272 L440.000444,48.368 L450.864444,48.368 C459.264444,48.368 463.184444,51.28 462.176444,56.432 C461.168444,61.584 457.360444,64.272 448.960444,64.272 Z M498.392889,81.296 L506.680889,65.952 L532.216889,65.952 L534.568889,81.296 L555.176889,81.296 L541.176889,2.896 L522.136889,2.896 L477.672889,81.296 L498.392889,81.296 Z M529.752889,49.376 L515.640889,49.376 L526.616889,28.992 L529.752889,49.376 Z M593.372,82.192 C614.316,82.192 629.66,70.768 634.588,52.848 L613.084,52.848 C610.172,60.352 604.684,65.168 595.5,65.168 C584.412,65.168 576.012,57.328 578.924,42.096 C581.836,26.864 591.244,19.024 602.22,19.024 C611.292,19.024 617.116,23.84 616.668,31.344 L638.732,31.344 C640.076,13.536 626.412,2 605.692,2 C584.076,2 564.028,14.768 558.876,40.976 C554.62,63.264 570.524,82.192 593.372,82.192 Z M658.985333,81.296 L662.793333,61.92 L675.673333,50.16 L687.545333,81.296 L712.857333,81.296 L692.361333,35.04 L727.865333,2.896 L699.753333,2.896 L668.505333,32.128 L674.217333,2.896 L654.169333,2.896 L638.937333,81.296 L658.985333,81.296 Z"
                      id="PLAYBACK-Copy-2" fill="#1F1C1C" fill-rule="nonzero"
                      transform="translate(434.397333, 42.096000) rotate(-360.000000) translate(-434.397333, -42.096000) "></path>
                <path d="M65,0 C28.551174,0 0,16.7655378 0,38.1681631 C0,59.5714717 28.551174,76.3363262 65,76.3363262 C65.0196442,76.3363262 65.0399658,76.3349596 65.05961,76.3349596 L65,86 L92.6461853,72.2363373 L65.1693467,58.4726747 L65.1097367,68.1342985 C65.0731578,68.1342985 65.0372563,68.1363485 65,68.1363485 C34.1721292,68.1363485 8.12864095,54.4130024 8.12864095,38.1681631 C8.12864095,21.9240072 34.1721292,8.19997775 65,8.19997775 C95.8278708,8.19997775 121.871359,21.9240072 121.871359,38.1681631 C121.871359,47.8953867 112.113603,57.4237609 96.4043269,63.0339123 L99.1179382,70.7644413 C118.455298,63.8573267 130,51.6714765 130,38.1681631 C130,16.7655378 101.448826,0 65,0"
                      id="Fill-1-Copy-2" fill="#DB3236"></path>
            </g>
        </g>
    </g>
</svg>